<?xml version="1.0" encoding="UTF-8" standalone="no"?>
<!-- Created with Inkscape (http://www.inkscape.org/) -->

<svg
   xmlns:dc="http://purl.org/dc/elements/1.1/"
   xmlns:cc="http://creativecommons.org/ns#"
   xmlns:rdf="http://www.w3.org/1999/02/22-rdf-syntax-ns#"
   xmlns:svg="http://www.w3.org/2000/svg"
   xmlns="http://www.w3.org/2000/svg"
   xmlns:xlink="http://www.w3.org/1999/xlink"
   xmlns:sodipodi="http://sodipodi.sourceforge.net/DTD/sodipodi-0.dtd"
   xmlns:inkscape="http://www.inkscape.org/namespaces/inkscape"
   width="210mm"
   height="297mm"
   viewBox="0 0 210 297"
   version="1.1"
   id="svg8"
   inkscape:version="0.92.3 (2405546, 2018-03-11)"
   sodipodi:docname="LogoKAMR.svg">
  <defs
     id="defs2">
    <linearGradient
       inkscape:collect="always"
       id="linearGradient1483">
      <stop
         style="stop-color:#ffffff;stop-opacity:1;"
         offset="0"
         id="stop1479" />
      <stop
         style="stop-color:#ffffff;stop-opacity:0;"
         offset="1"
         id="stop1481" />
    </linearGradient>
    <marker
       inkscape:stockid="Arrow1Lstart"
       orient="auto"
       refY="0.0"
       refX="0.0"
       id="Arrow1Lstart"
       style="overflow:visible"
       inkscape:isstock="true">
      <path
         id="path817"
         d="M 0.0,0.0 L 5.0,-5.0 L -12.5,0.0 L 5.0,5.0 L 0.0,0.0 z "
         style="fill-rule:evenodd;stroke:#000000;stroke-width:1.0pt"
         transform="scale(0.8) translate(12.5,0)" />
    </marker>
    <filter
       inkscape:collect="always"
       style="color-interpolation-filters:sRGB"
       id="filter1449"
       x="-0.014219838"
       width="1.0284397"
       y="-0.020524048"
       height="1.0410481">
      <feGaussianBlur
         inkscape:collect="always"
         stdDeviation="3.1274618"
         id="feGaussianBlur1451" />
    </filter>
    <radialGradient
       inkscape:collect="always"
       xlink:href="#linearGradient1483"
       id="radialGradient1485"
       cx="104.91357"
       cy="140.84645"
       fx="104.91357"
       fy="140.84645"
       r="42.925472"
       gradientTransform="matrix(2.0566487,0,0,1.0114713,-138.22229,-9.1752042)"
       gradientUnits="userSpaceOnUse" />
  </defs>
  <sodipodi:namedview
     id="base"
     pagecolor="#ffffff"
     bordercolor="#666666"
     borderopacity="1.0"
     inkscape:pageopacity="0.0"
     inkscape:pageshadow="2"
     inkscape:zoom="0.35"
     inkscape:cx="-64.285714"
     inkscape:cy="707.32758"
     inkscape:document-units="mm"
     inkscape:current-layer="layer1"
     showgrid="false"
     inkscape:window-width="1366"
     inkscape:window-height="705"
     inkscape:window-x="-8"
     inkscape:window-y="-8"
     inkscape:window-maximized="1" />
  <metadata
     id="metadata5">
    <rdf:RDF>
      <cc:Work
         rdf:about="">
        <dc:format>image/svg+xml</dc:format>
        <dc:type
           rdf:resource="http://purl.org/dc/dcmitype/StillImage" />
        <dc:title />
      </cc:Work>
    </rdf:RDF>
  </metadata>
  <g
     inkscape:label="Capa 1"
     inkscape:groupmode="layer"
     id="layer1">
    <path
       id="rect10"
       transform="matrix(0.26458333,0,0,0.26458333,-29.633334,0)"
       style="opacity:0.503;fill:#0095ff;stroke:#000000;stroke-width:13.22834682;stroke-linejoin:bevel;stroke-miterlimit:4;stroke-dasharray:none;stroke-opacity:1;filter:url(#filter1449);fill-opacity:1"
       d="m 190.24023,331.0918 c -0.0488,7.88363 -0.0997,15.76678 -0.15234,23.65039 0.52708,0.82639 1.05535,1.65183 1.60156,2.47461 11.84043,17.83547 16.53265,21.05452 31.53321,36.00586 2.23287,-11.67182 4.55446,-23.32615 6.91015,-34.97266 0.14641,-9.05262 0.28132,-18.10547 0.43164,-27.1582 z m 198.00782,0 c -0.0517,2.40418 -0.10515,4.81086 -0.15625,7.21484 2.82338,-2.45218 5.68092,-4.84855 8.55859,-7.21484 z m 72.18554,0 c -0.40741,4.9187 -0.79747,9.8655 -1.19531,14.79882 0.50416,-0.89759 1.00434,-1.79733 1.51172,-2.69335 0.41731,-3.94832 0.86321,-8.10939 1.27734,-12.10547 z m 41.79688,0 c 1.06867,3.00376 2.18441,6.13848 3.26758,9.18359 0.15691,0.15304 0.31046,0.31551 0.46679,0.4707 1.72462,-3.93416 2.348,-5.33456 4.24024,-9.65429 z m 55.80469,0 c 0.66317,7.20452 1.34199,14.32709 2.03125,21.39648 0.72728,-7.08958 1.08091,-14.23511 1.31836,-21.39648 z m 42.29492,0 c 0.86906,31.70446 1.76015,63.41678 2.64258,95.08398 3.11492,0.65218 7.29534,1.52498 9.26172,1.9336 5.87111,1.0323 11.75692,4.10154 17.61523,3.38476 -2.83508,-24.31834 -6.15793,-53.98363 -11.00586,-96.07422 -0.0741,-1.57165 -0.15736,-2.84987 -0.23437,-4.32812 z m -272.26367,6.71289 c -3.79872,17.05394 -7.6519,34.04824 -11.54493,51.04687 0.30576,5.05986 0.64113,10.11725 0.9668,15.17578 7.2952,-6.53267 14.59359,-13.0603 21.7832,-19.70312 0.0217,-3.81866 0.06,-7.26087 0.0879,-10.9336 -2.04434,-7.42975 -4.09196,-14.62181 -6.12305,-21.45312 -1.43041,-4.81098 -3.26356,-9.48415 -5.16992,-14.13281 z m -171.66993,15.73242 c -5.20846,75.89712 -9.37405,142.81326 -18.52929,296.60351 7.4279,-16.27986 16.05915,-31.82456 21.97656,-42.32812 0.0251,-5.5983 0.0429,-11.19661 0.0703,-16.79492 0.37334,-76.13185 0.99593,-152.26084 1.53321,-228.39063 -1.78751,-3.04206 -3.46162,-6.06035 -5.05079,-9.08984 z m 375.09961,0.0234 c -1.9647,4.43735 -3.93836,8.87046 -5.91015,13.30468 0.007,0.0119 0.0169,0.0292 0.0234,0.041 6.16621,11.14366 4.09333,25.14068 6.14062,37.71094 0.35725,2.85038 0.6882,5.7038 1.02734,8.55664 1.66401,0.009 3.34892,0.16867 5.04493,0.41992 -2.2475,-19.62577 -4.34331,-39.58896 -6.32618,-60.0332 z m -119.35547,1.71679 c -8.5289,7.15531 -16.76169,14.71405 -24.85546,22.42578 -0.58545,25.94755 -1.02568,46.51607 -1.41993,65.1504 4.54367,20.34398 7.92189,36.3998 10.55665,50.3496 5.51745,-15.07235 11.13492,-30.1043 16.9121,-45.07226 -0.3247,-31.1611 -0.71343,-62.45377 -1.19336,-92.85352 z m -222.375,44.83204 c -0.38354,52.76383 -0.77243,105.52823 -1.08203,158.29296 4.138,-6.70621 8.01301,-12.7612 11.87696,-18.61328 3.66455,-28.33147 7.37036,-56.65678 11.80859,-84.875 1.52462,-9.69348 3.15245,-19.36986 4.84961,-29.03515 -4.64144,-3.96684 -9.24794,-7.9762 -13.79687,-12.05469 -5.62859,-5.73273 -9.906,-9.92228 -13.65626,-13.71484 z m 313.07032,17.78515 c -0.9661,2.16699 -1.93531,4.33256 -2.90039,6.5 0.20239,4.45613 0.47199,8.90741 0.83203,13.34961 5.96278,73.56973 12.68667,117.78592 22.72265,161.5625 0.56113,0.35728 1.12792,0.7051 1.68555,1.06836 0.44455,-3.33446 1.15294,-8.72378 1.28516,-9.71875 0.65116,-4.90026 2.06443,-8.80717 3.91601,-11.80469 0.59399,-4.40788 1.13636,-8.47679 1.90235,-14.03906 1.63466,-11.87024 3.75091,-27.14325 5.98242,-43.33984 -11.47594,-33.80784 -22.00873,-64.67612 -28.74414,-84.47461 -2.11613,-2.52845 -3.46883,-7.49755 -4.34961,-12.56836 -0.84733,-2.36954 -1.57077,-4.40098 -2.33203,-6.53516 z m -163.68164,5.07422 c -6.42441,5.74752 -12.85209,11.49268 -19.20508,17.32031 0.80982,11.26304 1.65668,22.52358 2.51758,33.78321 3.18557,2.56589 6.36657,5.13756 9.5332,7.72656 3.09273,2.52858 5.06394,4.15186 7.26172,5.95898 -0.0795,-23.99356 -0.124,-45.77372 -0.10742,-64.78906 z m 321.00976,21.9082 c 0.0949,0.67689 0.18491,1.35457 0.28125,2.03125 1.74939,12.28761 3.50721,24.42661 5.26953,36.48242 v -13.83984 c -0.97451,-4.21492 -1.90011,-8.44063 -2.69922,-12.6914 -0.43871,-2.33392 -2.63439,-7.14041 -2.00195,-8.49805 -0.36475,-1.4488 -0.59483,-2.42242 -0.84961,-3.48438 z m -56.38867,10.6543 c 0.70916,25.62921 1.42051,51.26186 2.09375,76.76563 0.0739,2.79995 0.68363,22.15426 1.22852,39.76562 4.09115,1.43889 7.90767,3.20417 10.37304,6.57422 6.63443,9.06894 7.42001,21.25856 9.99024,32.19726 5.61462,23.89523 10.35208,47.99842 14.63867,72.16797 2.41141,-19.7614 9.80366,-38.96235 16.28125,-57.89062 -14.29888,-86.78292 -19.89978,-122.80501 -25.37891,-167.3125 -2.4221,0.68478 -4.8646,1.23327 -7.21484,1.70117 -6.42928,1.28001 -12.91153,-2.27829 -19.36719,-3.41797 -1.25928,-0.26188 -1.49381,-0.31119 -2.64453,-0.55078 z m -28.43164,5.30664 c -0.12402,0.93811 -0.40686,3.07749 -0.46289,3.50586 -0.32896,2.51511 -0.67296,5.02839 -1.00586,7.54297 0.71915,5.29809 1.4531,10.59027 2.20117,15.875 -0.24609,-8.981 -0.48365,-17.93351 -0.73242,-26.92383 z m -98.62695,26.57813 c -0.9114,4.65316 -1.79259,9.31196 -2.55078,13.99218 -0.8232,5.08147 -0.43656,10.66104 -0.28907,16.12305 0.49407,10.60642 0.0266,20.81504 -6.24609,28.63672 -2.84589,3.54864 -7.752,2.80667 -12.62891,0.11328 -3.11117,0.95562 -6.22507,1.42431 -8.91406,1.12891 -0.2474,4.69075 -0.49046,9.54724 -0.73633,14.29296 9.85028,5.55265 19.85873,10.82576 30.10742,15.66993 4.76659,2.25297 9.7602,3.988 14.64063,5.98242 0.2685,0.084 0.53329,0.17401 0.80078,0.25976 -5.61526,-27.81821 -10.14407,-57.71739 -14.18359,-96.19921 z m -182.92578,0.27148 c -6.41642,45.02539 -13.31367,94.04826 -20.17188,144.00586 0.71009,19.21657 1.80527,38.42563 3.41406,57.625 0.2291,2.73399 0.15954,5.22357 -0.13672,7.48633 h 35.89844 c -2.0756,-22.33167 -4.8316,-51.85366 -9.80469,-104.41211 -2.75828,-34.56525 -5.4518,-69.15246 -8.01757,-103.75586 -0.39366,-0.3166 -0.78768,-0.63296 -1.18164,-0.94922 z m 31.74609,25.81641 c 2.00077,25.3968 4.01384,50.7926 5.89648,76.19726 2.19359,23.18878 4.32624,46.38258 6.47071,69.57617 1.05109,-3.32754 2.07699,-6.599 3.11328,-9.89257 -1.60275,-22.26776 -1.17911,-40.57606 -1.48828,-98.97657 -0.0507,-9.57767 -0.0688,-16.84485 -0.10938,-25.64648 -4.64447,-3.73259 -9.26694,-7.4915 -13.88281,-11.25781 z m 88.5,14.48242 c -1.45749,4.05954 -2.91392,8.11962 -4.36523,12.18164 1.49335,0.94659 2.98592,1.89446 4.48242,2.83594 -0.035,-4.92103 -0.0797,-10.0366 -0.11719,-15.01758 z m -6.35938,44.67187 c 1.67564,14.8786 3.66583,32.75438 6.25196,54.87305 0.20826,-6.11244 0.42026,-12.22437 0.65039,-18.33594 -0.0595,-10.34705 -0.13454,-21.58601 -0.20313,-32.45703 -2.24006,-1.3482 -4.47175,-2.71092 -6.69922,-4.08008 z m 151.08399,9.48828 c -3.28176,24.27792 -4.37715,33.63283 -5.2207,39.63282 6.29541,5.23879 12.51086,10.58784 18.7539,15.85351 -2.2511,-11.63922 -4.42183,-23.16091 -6.49609,-34.56836 -2.28686,-6.8329 -4.68701,-13.93057 -7.03711,-20.91797 z m -114.96875,11.28907 c -0.22738,5.35245 -0.43945,10.70473 -0.63477,16.05859 0.19344,33.68598 0.34679,62.3456 0.49805,87.31055 h 76.03906 c -8.30336,-29.71932 -15.39474,-55.16868 -21.22461,-79.2168 -6.0889,-3.22504 -12.47195,-5.91382 -19.26367,-7.81836 -5.60689,-2.33038 -11.33331,-4.39007 -16.82031,-6.99023 -6.27411,-2.97318 -12.46632,-6.0995 -18.59375,-9.34375 z m -251.57031,15.17968 c -1.25224,2.19266 -2.51479,4.40562 -3.83789,6.74219 -0.0512,11.86986 -0.107,23.7397 -0.14844,35.60938 1.41222,-15.50638 2.8109,-29.89043 3.98633,-42.35157 z m 191.4082,4.12891 c -0.91617,2.50855 -1.83888,5.0149 -2.75977,7.52148 -0.73565,18.06909 -1.59862,38.41333 -2.73828,64.22852 -0.18099,4.09986 -0.31599,8.2044 -0.4414,12.31055 h 11.19336 c -0.60231,-17.2175 -1.2581,-34.66851 -1.76954,-52.58399 -1.24056,-10.48108 -2.37368,-20.97755 -3.48437,-31.47656 z m 150.97852,30.77344 c 4.30161,16.04446 9.27924,33.91455 14.67187,53.28711 h 32.53516 c -0.10767,-4.46578 -0.22464,-8.93103 -0.33985,-13.39649 -0.2668,-1.28588 -0.54017,-2.58344 -0.80468,-3.86523 -3.12687,-1.69961 -6.43807,-3.93359 -8.87891,-5.46289 -16.66228,-12.90966 -7.73663,-5.75695 -27.84961,-22.69531 -3.09589,-2.60724 -6.21101,-5.24158 -9.33398,-7.86719 z m -375.00391,28.1543 c -0.15289,0.3492 -0.3129,0.6953 -0.46485,1.04492 -6.89085,15.8553 -9.6651,19.70355 -8.04101,24.08789 h 8.43555 c 0.0207,-8.37766 0.0451,-16.75522 0.0703,-25.13281 z m 417.42773,1.70703 c -0.91517,-0.0862 -0.0486,1.4584 3.56055,5.78125 -0.18835,-0.91321 -0.3753,-1.82321 -0.5625,-2.73438 -0.36364,-0.81738 -0.73592,-1.61616 -0.9043,-2.12305 -0.96374,-0.53751 -1.7011,-0.88686 -2.09375,-0.92382 z"
       inkscape:connector-curvature="0" />
    <rect
       style="opacity:0.86148649;fill:url(#radialGradient1485);fill-opacity:1;stroke:none;stroke-width:11.71312237;stroke-linejoin:bevel;stroke-miterlimit:4;stroke-dasharray:none;stroke-opacity:1"
       id="rect1453"
       width="176.56522"
       height="86.835762"
       x="-10.734527"
       y="89.869034" />
    <text
       xml:space="preserve"
       style="font-style:normal;font-weight:normal;font-size:38.5946846px;line-height:1.25;font-family:sans-serif;letter-spacing:0px;word-spacing:0px;opacity:1;fill:#000000;fill-opacity:1;stroke:none;stroke-width:0.96486723"
       x="33.194729"
       y="145.0717"
       id="text1465"
       transform="scale(0.97173203,1.0290903)"><tspan
         sodipodi:role="line"
         x="33.194729"
         y="145.0717"
         style="font-style:normal;font-variant:normal;font-weight:normal;font-stretch:normal;font-family:'Buxton Sketch';-inkscape-font-specification:'Buxton Sketch';stroke-width:0.96486723"
         id="tspan1467">KAMR</tspan></text>
  </g>
</svg>
